<svg width="16" height="16" viewBox="0 0 16 16" fill="none" xmlns="http://www.w3.org/2000/svg">
<g clip-path="url(#clip0_1_99)">
<path d="M12.6559 10.4392L12.7732 10.5572L12.8919 10.4392C13.0312 10.2999 13.1965 10.1894 13.3785 10.114C13.5605 10.0386 13.7556 9.99983 13.9526 9.99983C14.1495 9.99983 14.3446 10.0386 14.5266 10.114C14.7086 10.1894 14.8739 10.2999 15.0132 10.4392C15.1525 10.5785 15.263 10.7438 15.3384 10.9258C15.4138 11.1078 15.4526 11.3029 15.4526 11.4998C15.4526 11.6968 15.4138 11.8919 15.3384 12.0739C15.263 12.2559 15.1525 12.4212 15.0132 12.5605L12.7732 14.7998L10.5346 12.5605C10.2533 12.2792 10.0952 11.8977 10.0952 11.4998C10.0952 11.102 10.2533 10.7205 10.5346 10.4392C10.8159 10.1579 11.1974 9.99983 11.5952 9.99983C11.9931 9.99983 12.3746 10.1579 12.6559 10.4392ZM8.76189 9.33317V10.6665C7.70103 10.6665 6.68361 11.0879 5.93347 11.8381C5.18332 12.5882 4.76189 13.6056 4.76189 14.6665H3.42856C3.42857 13.2809 3.96785 11.9497 4.93221 10.9547C5.89656 9.95974 7.21028 9.37914 8.59523 9.33584L8.76189 9.33317ZM8.76189 0.666504C10.9719 0.666504 12.7619 2.4565 12.7619 4.6665C12.7623 5.70152 12.3613 6.69637 11.6433 7.44185C10.9253 8.18732 9.9462 8.62536 8.91189 8.66384L8.76189 8.6665C6.55189 8.6665 4.76189 6.8765 4.76189 4.6665C4.76152 3.63148 5.16249 2.63664 5.8805 1.89116C6.5985 1.14568 7.57759 0.707652 8.61189 0.669171L8.76189 0.666504ZM8.76189 1.99984C7.28856 1.99984 6.09523 3.19317 6.09523 4.6665C6.09523 6.13984 7.28856 7.33317 8.76189 7.33317C10.2352 7.33317 11.4286 6.13984 11.4286 4.6665C11.4286 3.19317 10.2352 1.99984 8.76189 1.99984Z" fill="black"/>
</g>
<defs>
<clipPath id="clip0_1_99">
<rect width="16" height="16" fill="white"/>
</clipPath>
</defs>
</svg>
