<svg width="406" height="69" viewBox="0 0 406 69" fill="none" xmlns="http://www.w3.org/2000/svg">
<path d="M19.128 24L13.848 14.752C13.6133 14.7733 13.112 14.784 12.344 14.784H5.176V24H2.072V1.152H12.728C18.616 1.152 21.56 3.43467 21.56 8C21.56 11.1147 20.056 13.152 17.048 14.112L22.776 24H19.128ZM12.44 12C16.3227 12 18.264 10.6453 18.264 7.936C18.264 6.50667 17.8053 5.48267 16.888 4.864C15.9707 4.24533 14.5093 3.936 12.504 3.936H5.176V12H12.44ZM25.447 24V1.152H43.623V3.936H28.615V10.816H42.887V13.6H28.615V21.216H44.295L43.751 24H25.447ZM70.3798 16.48C69.9318 19.104 68.7371 21.1093 66.7958 22.496C64.8544 23.8827 62.2624 24.576 59.0198 24.576C56.5664 24.576 54.4118 24.1067 52.5558 23.168C50.7211 22.208 49.2811 20.8213 48.2358 19.008C47.2118 17.1947 46.6998 15.0507 46.6998 12.576C46.6998 10.2507 47.1904 8.18133 48.1718 6.368C49.1531 4.55467 50.5718 3.136 52.4278 2.112C54.2838 1.088 56.4491 0.575998 58.9238 0.575998C61.9531 0.575998 64.3851 1.20533 66.2198 2.464C68.0544 3.70133 69.3238 5.57867 70.0278 8.096L66.9238 8.576C66.2624 6.74133 65.3024 5.41867 64.0438 4.608C62.8064 3.79733 61.0998 3.392 58.9238 3.392C57.1531 3.392 55.5958 3.75467 54.2517 4.48C52.9078 5.20533 51.8624 6.26133 51.1158 7.648C50.3691 9.03467 49.9958 10.6773 49.9958 12.576C49.9958 14.432 50.3478 16.0533 51.0518 17.44C51.7558 18.8053 52.7904 19.872 54.1558 20.64C55.5211 21.3867 57.1424 21.76 59.0198 21.76C61.3664 21.76 63.1904 21.3333 64.4918 20.48C65.8144 19.6267 66.6891 18.2933 67.1158 16.48H70.3798ZM74.1658 24V1.152H92.3418V3.936H77.3338V10.816H91.6058V13.6H77.3338V21.216H93.0138L92.4698 24H74.1658ZM96.6345 24V1.152H106.811C112.805 1.152 115.803 3.104 115.803 7.008C115.803 8.24533 115.483 9.28 114.843 10.112C114.224 10.9227 113.296 11.52 112.059 11.904C115.152 12.928 116.699 14.752 116.699 17.376C116.699 19.5307 115.899 21.1733 114.299 22.304C112.699 23.4347 110.352 24 107.259 24H96.6345ZM107.035 10.72C108.933 10.72 110.331 10.432 111.227 9.856C112.123 9.28 112.571 8.37333 112.571 7.136C112.571 5.984 112.101 5.152 111.163 4.64C110.224 4.10667 108.72 3.84 106.651 3.84H99.7385V10.72H107.035ZM107.099 21.312C109.317 21.312 110.917 21.0133 111.899 20.416C112.901 19.7973 113.403 18.8053 113.403 17.44C113.403 16.0747 112.891 15.0613 111.867 14.4C110.843 13.7387 109.285 13.408 107.195 13.408H99.7385V21.312H107.099ZM139.025 24L136.017 17.696H123.505L120.529 24H117.137L128.209 1.152H131.473L142.545 24H139.025ZM129.777 4.544L124.721 15.072H134.833L129.777 4.544ZM171.407 24L156.207 5.632V24H153.103V1.152H156.175L171.375 19.52V1.152H174.479V24H171.407ZM203.642 12.576C203.642 14.944 203.13 17.0347 202.106 18.848C201.082 20.64 199.599 22.048 197.658 23.072C195.738 24.0747 193.477 24.576 190.874 24.576C188.357 24.576 186.138 24.1067 184.218 23.168C182.298 22.208 180.794 20.8213 179.706 19.008C178.639 17.1947 178.106 15.0507 178.106 12.576C178.106 10.208 178.618 8.128 179.642 6.336C180.666 4.52267 182.138 3.11467 184.058 2.112C185.999 1.088 188.271 0.575998 190.874 0.575998C193.391 0.575998 195.61 1.056 197.53 2.016C199.45 2.95467 200.943 4.33067 202.01 6.144C203.098 7.95733 203.642 10.1013 203.642 12.576ZM200.346 12.576C200.346 9.67467 199.514 7.424 197.85 5.824C196.186 4.20267 193.861 3.392 190.874 3.392C187.909 3.392 185.583 4.20267 183.898 5.824C182.234 7.44533 181.402 9.696 181.402 12.576C181.402 15.4773 182.234 17.7387 183.898 19.36C185.562 20.96 187.887 21.76 190.874 21.76C193.839 21.76 196.154 20.9493 197.818 19.328C199.503 17.7067 200.346 15.456 200.346 12.576ZM224.052 7.072C223.519 5.74933 222.697 4.8 221.588 4.224C220.5 3.648 218.964 3.36 216.98 3.36C214.719 3.36 212.969 3.65867 211.732 4.256C210.516 4.85333 209.908 5.70667 209.908 6.816C209.908 7.56267 210.089 8.18133 210.452 8.672C210.836 9.14133 211.423 9.52533 212.212 9.824C213.023 10.1227 214.1 10.368 215.444 10.56L219.86 11.2C222.505 11.6053 224.457 12.3627 225.716 13.472C226.996 14.56 227.636 16.0533 227.636 17.952C227.636 20.0427 226.74 21.6747 224.948 22.848C223.156 24 220.66 24.576 217.46 24.576C213.919 24.576 211.209 23.9787 209.332 22.784C207.455 21.5893 206.377 19.776 206.1 17.344H209.364C209.663 18.8587 210.473 19.9787 211.796 20.704C213.119 21.4293 215.007 21.792 217.46 21.792C219.679 21.792 221.385 21.4613 222.58 20.8C223.775 20.1173 224.372 19.1573 224.372 17.92C224.372 16.8747 223.967 16.0533 223.156 15.456C222.345 14.8587 221.023 14.4213 219.188 14.144L215.22 13.568C213.087 13.248 211.401 12.8107 210.164 12.256C208.948 11.7013 208.063 10.9973 207.508 10.144C206.975 9.26933 206.708 8.192 206.708 6.912C206.708 4.928 207.615 3.38133 209.428 2.272C211.241 1.14133 213.759 0.575998 216.98 0.575998C218.964 0.575998 220.617 0.789332 221.94 1.216C223.284 1.62133 224.372 2.26133 225.204 3.136C226.036 4.01067 226.665 5.14133 227.092 6.528L224.052 7.072ZM248.052 7.072C247.519 5.74933 246.697 4.8 245.588 4.224C244.5 3.648 242.964 3.36 240.98 3.36C238.719 3.36 236.969 3.65867 235.732 4.256C234.516 4.85333 233.908 5.70667 233.908 6.816C233.908 7.56267 234.089 8.18133 234.452 8.672C234.836 9.14133 235.423 9.52533 236.212 9.824C237.023 10.1227 238.1 10.368 239.444 10.56L243.86 11.2C246.505 11.6053 248.457 12.3627 249.716 13.472C250.996 14.56 251.636 16.0533 251.636 17.952C251.636 20.0427 250.74 21.6747 248.948 22.848C247.156 24 244.66 24.576 241.46 24.576C237.919 24.576 235.209 23.9787 233.332 22.784C231.455 21.5893 230.377 19.776 230.1 17.344H233.364C233.663 18.8587 234.473 19.9787 235.796 20.704C237.119 21.4293 239.007 21.792 241.46 21.792C243.679 21.792 245.385 21.4613 246.58 20.8C247.775 20.1173 248.372 19.1573 248.372 17.92C248.372 16.8747 247.967 16.0533 247.156 15.456C246.345 14.8587 245.023 14.4213 243.188 14.144L239.22 13.568C237.087 13.248 235.401 12.8107 234.164 12.256C232.948 11.7013 232.063 10.9973 231.508 10.144C230.975 9.26933 230.708 8.192 230.708 6.912C230.708 4.928 231.615 3.38133 233.428 2.272C235.241 1.14133 237.759 0.575998 240.98 0.575998C242.964 0.575998 244.617 0.789332 245.94 1.216C247.284 1.62133 248.372 2.26133 249.204 3.136C250.036 4.01067 250.665 5.14133 251.092 6.528L248.052 7.072ZM274.588 24L271.58 17.696H259.068L256.092 24H252.7L263.772 1.152H267.036L278.108 24H274.588ZM265.34 4.544L260.284 15.072H270.396L265.34 4.544ZM297.177 7.072C296.644 5.74933 295.822 4.8 294.713 4.224C293.625 3.648 292.089 3.36 290.105 3.36C287.844 3.36 286.094 3.65867 284.857 4.256C283.641 4.85333 283.033 5.70667 283.033 6.816C283.033 7.56267 283.214 8.18133 283.577 8.672C283.961 9.14133 284.548 9.52533 285.337 9.824C286.148 10.1227 287.225 10.368 288.569 10.56L292.985 11.2C295.63 11.6053 297.582 12.3627 298.841 13.472C300.121 14.56 300.761 16.0533 300.761 17.952C300.761 20.0427 299.865 21.6747 298.073 22.848C296.281 24 293.785 24.576 290.585 24.576C287.044 24.576 284.334 23.9787 282.457 22.784C280.58 21.5893 279.502 19.776 279.225 17.344H282.489C282.788 18.8587 283.598 19.9787 284.921 20.704C286.244 21.4293 288.132 21.792 290.585 21.792C292.804 21.792 294.51 21.4613 295.705 20.8C296.9 20.1173 297.497 19.1573 297.497 17.92C297.497 16.8747 297.092 16.0533 296.281 15.456C295.47 14.8587 294.148 14.4213 292.313 14.144L288.345 13.568C286.212 13.248 284.526 12.8107 283.289 12.256C282.073 11.7013 281.188 10.9973 280.633 10.144C280.1 9.26933 279.833 8.192 279.833 6.912C279.833 4.928 280.74 3.38133 282.553 2.272C284.366 1.14133 286.884 0.575998 290.105 0.575998C292.089 0.575998 293.742 0.789332 295.065 1.216C296.409 1.62133 297.497 2.26133 298.329 3.136C299.161 4.01067 299.79 5.14133 300.217 6.528L297.177 7.072ZM26.392 56.576C26.392 58.944 25.88 61.0347 24.856 62.848C23.832 64.64 22.3493 66.048 20.408 67.072C18.488 68.0747 16.2267 68.576 13.624 68.576C11.1067 68.576 8.888 68.1067 6.968 67.168C5.048 66.208 3.544 64.8213 2.456 63.008C1.38933 61.1947 0.856 59.0507 0.856 56.576C0.856 54.208 1.368 52.128 2.392 50.336C3.416 48.5227 4.888 47.1147 6.808 46.112C8.74933 45.088 11.0213 44.576 13.624 44.576C16.1413 44.576 18.36 45.056 20.28 46.016C22.2 46.9547 23.6933 48.3307 24.76 50.144C25.848 51.9573 26.392 54.1013 26.392 56.576ZM23.096 56.576C23.096 53.6747 22.264 51.424 20.6 49.824C18.936 48.2027 16.6107 47.392 13.624 47.392C10.6587 47.392 8.33333 48.2027 6.648 49.824C4.984 51.4453 4.152 53.696 4.152 56.576C4.152 59.4773 4.984 61.7387 6.648 63.36C8.312 64.96 10.6373 65.76 13.624 65.76C16.5893 65.76 18.904 64.9493 20.568 63.328C22.2533 61.7067 23.096 59.456 23.096 56.576ZM33.1775 57.952V68H30.0095V45.152H47.3215V47.936H33.1775V55.168H46.5855V57.952H33.1775ZM50.4783 68V45.152H68.6543V47.936H53.6463V54.816H67.9183V57.6H53.6463V65.216H69.3263L68.7823 68H50.4783ZM90.003 68L84.723 58.752C84.4883 58.7733 83.987 58.784 83.219 58.784H76.051V68H72.947V45.152H83.603C89.491 45.152 92.435 47.4347 92.435 52C92.435 55.1147 90.931 57.152 87.923 58.112L93.651 68H90.003ZM83.315 56C87.1977 56 89.139 54.6453 89.139 51.936C89.139 50.5067 88.6803 49.4827 87.763 48.864C86.8457 48.2453 85.3843 47.936 83.379 47.936H76.051V56H83.315ZM102.545 68V47.936H93.073V45.152H115.185V47.936H105.713V68H102.545ZM132.556 68L129.548 61.696H117.036L114.06 68H110.668L121.74 45.152H125.004L136.076 68H132.556ZM123.308 48.544L118.252 59.072H128.364L123.308 48.544ZM155.146 51.072C154.612 49.7493 153.791 48.8 152.682 48.224C151.594 47.648 150.058 47.36 148.074 47.36C145.812 47.36 144.063 47.6587 142.826 48.256C141.61 48.8533 141.002 49.7067 141.002 50.816C141.002 51.5627 141.183 52.1813 141.546 52.672C141.93 53.1413 142.516 53.5253 143.306 53.824C144.116 54.1227 145.194 54.368 146.538 54.56L150.954 55.2C153.599 55.6053 155.551 56.3627 156.81 57.472C158.09 58.56 158.73 60.0533 158.73 61.952C158.73 64.0427 157.834 65.6747 156.042 66.848C154.25 68 151.754 68.576 148.554 68.576C145.012 68.576 142.303 67.9787 140.426 66.784C138.548 65.5893 137.471 63.776 137.194 61.344H140.458C140.756 62.8587 141.567 63.9787 142.89 64.704C144.212 65.4293 146.1 65.792 148.554 65.792C150.772 65.792 152.479 65.4613 153.674 64.8C154.868 64.1173 155.466 63.1573 155.466 61.92C155.466 60.8747 155.06 60.0533 154.25 59.456C153.439 58.8587 152.116 58.4213 150.282 58.144L146.314 57.568C144.18 57.248 142.495 56.8107 141.258 56.256C140.042 55.7013 139.156 54.9973 138.602 54.144C138.068 53.2693 137.802 52.192 137.802 50.912C137.802 48.928 138.708 47.3813 140.522 46.272C142.335 45.1413 144.852 44.576 148.074 44.576C150.058 44.576 151.711 44.7893 153.034 45.216C154.378 45.6213 155.466 46.2613 156.298 47.136C157.13 48.0107 157.759 49.1413 158.186 50.528L155.146 51.072ZM170.635 68V45.152H188.811V47.936H173.803V54.816H188.075V57.6H173.803V65.216H189.483L188.939 68H170.635ZM219.376 68L204.176 49.632V68H201.072V45.152H204.144L219.344 63.52V45.152H222.448V68H219.376ZM251.611 56.576C251.611 58.944 251.099 61.0347 250.075 62.848C249.051 64.64 247.568 66.048 245.627 67.072C243.707 68.0747 241.445 68.576 238.843 68.576C236.325 68.576 234.107 68.1067 232.187 67.168C230.267 66.208 228.763 64.8213 227.675 63.008C226.608 61.1947 226.075 59.0507 226.075 56.576C226.075 54.208 226.587 52.128 227.611 50.336C228.635 48.5227 230.107 47.1147 232.027 46.112C233.968 45.088 236.24 44.576 238.843 44.576C241.36 44.576 243.579 45.056 245.499 46.016C247.419 46.9547 248.912 48.3307 249.979 50.144C251.067 51.9573 251.611 54.1013 251.611 56.576ZM248.315 56.576C248.315 53.6747 247.483 51.424 245.819 49.824C244.155 48.2027 241.829 47.392 238.843 47.392C235.877 47.392 233.552 48.2027 231.867 49.824C230.203 51.4453 229.371 53.696 229.371 56.576C229.371 59.4773 230.203 61.7387 231.867 63.36C233.531 64.96 235.856 65.76 238.843 65.76C241.808 65.76 244.123 64.9493 245.787 63.328C247.472 61.7067 248.315 59.456 248.315 56.576ZM262.32 68L251.856 45.152H255.536L264.08 64.608L272.624 45.152H276.176L265.712 68H262.32ZM278.447 68V45.152H281.615V68H278.447ZM286.76 68V45.152H296.424C300.562 45.152 303.73 46.144 305.928 48.128C308.146 50.0907 309.256 52.9067 309.256 56.576C309.256 60.2453 308.072 63.072 305.704 65.056C303.336 67.0187 299.965 68 295.592 68H286.76ZM295.72 65.216C299.09 65.216 301.64 64.4907 303.368 63.04C305.096 61.568 305.96 59.4133 305.96 56.576C305.96 50.816 302.781 47.936 296.424 47.936H289.928V65.216H295.72ZM331.088 68L328.08 61.696H315.568L312.592 68H309.2L320.272 45.152H323.536L334.608 68H331.088ZM321.84 48.544L316.784 59.072H326.896L321.84 48.544ZM337.197 68V45.152H346.861C351 45.152 354.168 46.144 356.365 48.128C358.584 50.0907 359.693 52.9067 359.693 56.576C359.693 60.2453 358.509 63.072 356.141 65.056C353.773 67.0187 350.402 68 346.029 68H337.197ZM346.157 65.216C349.528 65.216 352.077 64.4907 353.805 63.04C355.533 61.568 356.397 59.4133 356.397 56.576C356.397 50.816 353.218 47.936 346.861 47.936H340.365V65.216H346.157ZM363.322 68V45.152H381.498V47.936H366.49V54.816H380.762V57.6H366.49V65.216H382.17L381.626 68H363.322ZM402.271 51.072C401.737 49.7493 400.916 48.8 399.807 48.224C398.719 47.648 397.183 47.36 395.199 47.36C392.937 47.36 391.188 47.6587 389.951 48.256C388.735 48.8533 388.127 49.7067 388.127 50.816C388.127 51.5627 388.308 52.1813 388.671 52.672C389.055 53.1413 389.641 53.5253 390.431 53.824C391.241 54.1227 392.319 54.368 393.663 54.56L398.079 55.2C400.724 55.6053 402.676 56.3627 403.935 57.472C405.215 58.56 405.855 60.0533 405.855 61.952C405.855 64.0427 404.959 65.6747 403.167 66.848C401.375 68 398.879 68.576 395.679 68.576C392.137 68.576 389.428 67.9787 387.551 66.784C385.673 65.5893 384.596 63.776 384.319 61.344H387.583C387.881 62.8587 388.692 63.9787 390.015 64.704C391.337 65.4293 393.225 65.792 395.679 65.792C397.897 65.792 399.604 65.4613 400.799 64.8C401.993 64.1173 402.591 63.1573 402.591 61.92C402.591 60.8747 402.185 60.0533 401.375 59.456C400.564 58.8587 399.241 58.4213 397.407 58.144L393.439 57.568C391.305 57.248 389.62 56.8107 388.383 56.256C387.167 55.7013 386.281 54.9973 385.727 54.144C385.193 53.2693 384.927 52.192 384.927 50.912C384.927 48.928 385.833 47.3813 387.647 46.272C389.46 45.1413 391.977 44.576 395.199 44.576C397.183 44.576 398.836 44.7893 400.159 45.216C401.503 45.6213 402.591 46.2613 403.423 47.136C404.255 48.0107 404.884 49.1413 405.311 50.528L402.271 51.072Z" fill="white"/>
</svg>
